<svg id="Layer_1" xmlns="http://www.w3.org/2000/svg" viewBox="0 0 24 24"><style>.st0,.st1{fill:none;stroke:#fff;stroke-linecap:round;stroke-miterlimit:10}.st0{stroke-linejoin:round}.st1{fill-rule:evenodd;clip-rule:evenodd}.st1,.st2{stroke-linejoin:round}.st2,.st3{fill:none;stroke:#fff;stroke-linecap:square;stroke-miterlimit:10}</style><path class="st0" d="M15.8 5.2L18 4c.6-.3 1.3-.2 1.8.3.4.4.5 1.2.2 1.7l-1.2 2.2c1.1.2 2.3-.2 3.1-1 1.4-1.4 1.4-3.7 0-5.2C20.5.6 18.2.6 16.7 2c-.8.9-1.1 2.1-.9 3.2zM8.2 18.8L6 20c-.6.3-1.3.2-1.8-.3s-.6-1.2-.3-1.8l1.2-2.2c-1.1-.2-2.3.2-3.1 1-1.4 1.4-1.4 3.7 0 5.2 1.4 1.4 3.7 1.4 5.2 0 .9-.8 1.2-2 1-3.1zm10.6-3L20 18c.3.6.2 1.3-.3 1.8s-1.2.6-1.8.3l-2.2-1.2c-.2 1.1.2 2.3 1 3.1 1.4 1.4 3.7 1.4 5.2 0 1.4-1.4 1.4-3.7 0-5.2-.8-.9-2-1.2-3.1-1z"/><path class="st0" d="M20 17.9L16.8 12 20 6c.3-.6.2-1.3-.3-1.8-.4-.4-1.2-.5-1.7-.2l-6 3.2L6 4c-.5-.3-1.3-.2-1.7.3-.5.4-.6 1.2-.3 1.7l3.2 6L4 17.9c-.3.6-.2 1.3.3 1.8.4.5 1.2.6 1.7.3l6-3.2 6 3.2c.6.3 1.3.2 1.8-.3.4-.4.5-1.2.2-1.8z"/><path class="st0" d="M5.2 8.2L4 6c-.3-.5-.2-1.3.3-1.7.4-.5 1.2-.6 1.7-.3l2.2 1.2c.2-1.1-.2-2.3-1-3.1C5.8.7 3.5.7 2 2.1.6 3.5.6 5.8 2 7.3c.9.8 2.1 1.1 3.2.9zm4.2 2h.7M9.4 12h.7m-.7 1.8h.7"/><circle class="st0" cx="13.3" cy="12" r="1.4"/></svg>