<svg id="Layer_1" xmlns="http://www.w3.org/2000/svg" viewBox="0 0 24 24"><style>.st0,.st1{fill:none;stroke:#fff;stroke-linecap:round;stroke-miterlimit:10}.st0{stroke-linejoin:round}.st1{fill-rule:evenodd;clip-rule:evenodd}.st1,.st2{stroke-linejoin:round}.st2,.st3{fill:none;stroke:#fff;stroke-linecap:square;stroke-miterlimit:10}</style><ellipse transform="rotate(-44.976 11.999 12)" class="st0" cx="12" cy="12" rx="1.3" ry="1.3"/><path class="st0" d="M16.2 14.4c1.8-1.8 8-10.9 6.2-12.7L15.1 9c-.2-.4-.4-.7-.8-1C12.6 6 3.4-.2 1.6 1.6l7.3 7.3c-.4.2-.7.4-1 .8-1.8 1.8-8 10.9-6.2 12.7L9 15.1c.2.4.4.7.8 1 1.8 1.8 10.9 8 12.7 6.2L15.2 15c.3-.1.6-.3 1-.6zm-5.1-1.5c-.4-.4-.5-1-.3-1.5.1-.1.1-.3.3-.4.5-.5 1.3-.5 1.9 0 .5.5.5 1.3 0 1.9-.1.1-.3.2-.4.3-.6.2-1.1.1-1.5-.3z"/><path class="st0" d="M23 12c0-2-.6-4-1.5-5.6-.5.9-1 1.7-1.5 2.6m-2.5-2.5l2.3-2.3C17.8 2.2 15 1 12 1m7.4 11c0-.6-.1-1.2-.2-1.7l-.6.9m-2.9-2.9l1.5-1.5c-1.3-1.3-3.2-2.2-5.3-2.2M4.6 12c0 .6.1 1.2.2 1.7l.6-.9m2.9 2.9l-1.5 1.5c1.3 1.3 3.2 2.2 5.3 2.2M1 12c0 2 .6 4 1.5 5.6.5-.9 1-1.7 1.5-2.6m2.5 2.5l-2.3 2.3c2 2 4.7 3.2 7.8 3.2"/></svg>