<svg id="Layer_1" xmlns="http://www.w3.org/2000/svg" viewBox="0 0 24 24"><style>.st0,.st1{fill:none;stroke:#fff;stroke-linecap:round;stroke-miterlimit:10}.st0{stroke-linejoin:round}.st1{fill-rule:evenodd;clip-rule:evenodd}.st1,.st2{stroke-linejoin:round}.st2,.st3{fill:none;stroke:#fff;stroke-linecap:square;stroke-miterlimit:10}</style><ellipse transform="rotate(-44.984 12 12)" class="st0" cx="12" cy="12" rx="1.3" ry="1.3"/><path class="st0" d="M14.4 7.8C12.6 6 3.4-.2 1.6 1.6L11 11c.5-.5 1.3-.5 1.9 0 .5.5.5 1.3 0 1.9l1.4 1.4c1.9-1.7 1.9-4.7.1-6.5z"/><path class="st0" d="M12.9 12.9c-.5.5-1.3.5-1.9 0-.5-.5-.5-1.3 0-1.9L9.6 9.6c-1.8 1.8-1.8 4.7 0 6.5 1.8 1.8 10.9 8 12.7 6.2l-9.4-9.4zM12 23C5.9 23 1 18.1 1 12M12 1c6.1 0 11 4.9 11 11"/><path class="st0" d="M12 19.4c-4.1 0-7.4-3.3-7.4-7.4M12 4.6c4.1 0 7.4 3.3 7.4 7.4"/></svg>